<?xml version="1.0" encoding="iso-8859-1"?>
<!-- Generator: Adobe Illustrator 19.0.0, SVG Export Plug-In . SVG Version: 6.00 Build 0)  -->
<svg version="1.1" id="Capa_1" xmlns="http://www.w3.org/2000/svg" xmlns:xlink="http://www.w3.org/1999/xlink" x="0px" y="0px"
	 viewBox="0 0 512 512" style="enable-background:new 0 0 512 512;" xml:space="preserve">
<path style="fill:#61DE56;" d="M437.019,74.981C388.666,26.629,324.379,0,256,0C187.619,0,123.332,26.629,74.98,74.981
	C26.629,123.333,0,187.62,0,256c0,68.381,26.629,132.668,74.98,181.021C123.332,485.372,187.619,512,256,512
	s132.668-26.628,181.019-74.979C485.371,388.668,512,324.381,512,256C512,187.62,485.371,123.333,437.019,74.981z"/>
<path style="fill:#13C37B;" d="M437.019,74.981C388.666,26.629,324.379,0,256,0l0,0v512l0,0c68.381,0,132.668-26.628,181.019-74.979
	C485.371,388.668,512,324.381,512,256C512,187.62,485.371,123.333,437.019,74.981z"/>
<path style="fill:#F2F2F2;" d="M220.705,348.897c-3.838,0-7.678-1.465-10.605-4.394L124.895,259.3
	c-5.859-5.857-5.859-15.356-0.002-21.213c5.859-5.857,15.357-5.857,21.215,0l74.598,74.597l145.189-145.188
	c5.858-5.858,15.355-5.858,21.213,0c5.857,5.857,5.857,15.355,0,21.213L231.312,344.504
	C228.383,347.433,224.545,348.897,220.705,348.897z"/>
<path style="fill:#D9D9D9;" d="M387.107,167.497c-5.857-5.858-15.355-5.858-21.213,0L256,277.391v42.426L387.107,188.71
	C392.965,182.852,392.965,173.355,387.107,167.497z"/>
<g>
</g>
<g>
</g>
<g>
</g>
<g>
</g>
<g>
</g>
<g>
</g>
<g>
</g>
<g>
</g>
<g>
</g>
<g>
</g>
<g>
</g>
<g>
</g>
<g>
</g>
<g>
</g>
<g>
</g>
</svg>
